<svg xmlns="http://www.w3.org/2000/svg" xmlns:xlink="http://www.w3.org/1999/xlink" id="Layer_1" x="0px" y="0px" viewBox="0 0 1080 1080" style="enable-background:new 0 0 1080 1080;" xml:space="preserve"><style type="text/css">	.st0{fill-rule:evenodd;clip-rule:evenodd;fill:#4D4C4B;}	.st1{fill-rule:evenodd;clip-rule:evenodd;fill:#5FB74E;}	.st2{fill-rule:evenodd;clip-rule:evenodd;fill:#89C45F;}	.st3{fill-rule:evenodd;clip-rule:evenodd;fill:#4A9E4B;}	.st4{fill-rule:evenodd;clip-rule:evenodd;fill:#FDF8B4;}	.st5{fill-rule:evenodd;clip-rule:evenodd;fill:#FCD066;}	.st6{fill-rule:evenodd;clip-rule:evenodd;fill:#EEEFEE;}	.st7{fill-rule:evenodd;clip-rule:evenodd;fill:#FEFEFE;}	.st8{fill-rule:evenodd;clip-rule:evenodd;fill:#EE4D2D;}	.st9{fill-rule:evenodd;clip-rule:evenodd;fill:url(#SVGID_1_);}	.st10{fill-rule:evenodd;clip-rule:evenodd;fill:url(#SVGID_2_);}	.st11{fill:#94BF3E;}	.st12{fill:#FFFFFF;}	.st13{fill:#2AAA5A;}	.st14{fill:#E2127F;}	.st15{fill:#F19123;}	.st16{fill:#DF2228;}	.st17{fill:#1E93D1;}	.st18{fill:url(#SVGID_3_);}	.st19{fill-rule:evenodd;clip-rule:evenodd;fill:url(#SVGID_4_);filter:url(#Adobe_OpacityMaskFilter);}	.st20{mask:url(#id0_2_);fill:url(#SVGID_5_);}	.st21{fill:url(#SVGID_6_);}	.st22{fill-rule:evenodd;clip-rule:evenodd;}	.st23{fill-rule:evenodd;clip-rule:evenodd;fill:#EC2B89;}	.st24{fill-rule:evenodd;clip-rule:evenodd;fill:#00EFE8;}	.st25{fill-rule:evenodd;clip-rule:evenodd;fill:#FFFFFF;}	.st26{fill-rule:evenodd;clip-rule:evenodd;fill:#FEFEFE;stroke:#000000;stroke-width:0.4563;stroke-miterlimit:2.6131;}</style><g>	<path class="st11" d="M551.7,271.9c-0.5-1.1-1.1-2.3-2-3.4c-0.9-0.9-1.8-1.8-2.9-2.5c-2.3-1.4-5-1.8-7.4-1.6  c-1.4,0.2-2.5,0.5-3.8,1.1c-1.1,0.7-2.3,1.4-3.2,2.3s-1.6,2-2.3,3.2c-0.7,1.1-1.1,2.3-1.4,3.6l0,0c0,0-19.1-9.2-14.2,1.6  c3.6,7,8.3,13.5,13.7,19.1c0,0,22.5-0.5,29.1-3.2c3.6-6.8,6.5-14,8.3-21.6C568.2,259.3,553.1,271,551.7,271.9"></path>	<path class="st12" d="M625.1,575.5c0,2.9,0,5.9-0.2,8.8c-0.5,5.9-1.6,11.7-3.2,17.3c-0.9,2.9-1.8,5.6-2.7,8.3  c-1.1,2.7-2.3,5.4-3.6,8.1s-2.7,5.2-4.5,7.7c-1.8,2.5-3.4,4.7-5.2,7.2c-5.6,7-12.2,12.8-19.4,18c-2.5,1.6-5,3.2-7.4,4.5  c-2.7,1.4-5.2,2.7-7.9,3.8c-2.7,1.1-5.4,2.3-8.3,2.9c-2.7,0.9-5.6,1.6-8.6,2.3c-2.9,0.5-5.9,1.1-8.8,1.4s-5.9,0.5-8.8,0.5  s-5.9-0.2-8.8-0.5s-5.9-0.7-8.8-1.4c-2.9-0.7-5.9-1.4-8.6-2.3s-5.6-1.8-8.3-2.9s-5.4-2.5-7.9-3.8s-5.2-2.9-7.4-4.5  c-2.5-1.6-4.7-3.4-7-5.4c-2.3-1.8-4.5-3.8-6.5-5.9c-2-2-3.8-4.3-5.6-6.5s-3.6-4.7-5.2-7.2c-1.6-2.5-3.2-5-4.5-7.7  c-1.4-2.7-2.5-5.4-3.6-8.1s-2-5.6-2.9-8.3c-0.9-2.9-1.4-5.6-2-8.6c-0.5-2.9-0.9-5.9-1.1-8.8c-0.2-2.9-0.2-5.9-0.2-8.8  c0-1.6,0.2-3.2,0.9-4.7s1.6-2.9,2.7-4.1c4.7-4.7,12.6-4.7,17.3,0c2.3,2.3,3.6,5.4,3.6,8.6l0,0c0,2,0,4.3,0.2,6.3  c0.2,2,0.5,4.3,0.9,6.3c0.5,2,0.9,4.1,1.6,6.1c0.7,2,1.4,4.1,2.3,5.9c0.7,2,1.6,3.8,2.7,5.6c0.9,1.8,2,3.6,3.2,5.4s2.5,3.4,3.8,5  c1.4,1.6,2.7,3.2,4.3,4.7s2.9,2.9,4.7,4.3s3.4,2.5,5,3.8c1.8,1.1,3.6,2.3,5.4,3.2c1.8,0.9,3.8,1.8,5.6,2.7c1.8,0.9,4.1,1.6,5.9,2  c2,0.7,4.1,1.1,6.1,1.6c8.3,1.6,16.9,1.6,25,0c2-0.5,4.1-0.9,6.1-1.6c2-0.7,4.1-1.4,5.9-2c2-0.9,3.8-1.8,5.6-2.7  c1.8-0.9,3.6-2,5.4-3.2c1.8-1.1,3.4-2.5,5-3.8c1.6-1.4,3.2-2.7,4.7-4.3s2.9-3.2,4.3-4.7c1.4-1.6,2.7-3.4,3.8-5  c1.1-1.8,2.3-3.6,3.2-5.4s1.8-3.8,2.7-5.6c0.9-2,1.6-3.8,2-5.9c0.7-2,1.1-4.1,1.6-6.1c0.9-4.1,1.1-8.3,1.4-12.6l0,0  c0-3.2,1.4-6.3,3.6-8.6c3.6-3.6,8.8-4.5,13.3-2.7c1.6,0.7,2.9,1.6,4.1,2.7C623.8,569.4,624.9,572.6,625.1,575.5"></path>	<path class="st11" d="M604.4,426.2l-11.7-101.1c-0.5-2.3-1.8-4.1-3.6-5.2l-40.8-19.6l-13.5,1.6c0,0-32.9,27.3-32.7,27.3l-0.9,0.9  c-2,1.8-2.7,4.7-2.3,7.2l11.5,99.8L604.4,426.2L604.4,426.2z"></path>	<path class="st13" d="M585.7,296.2c-0.9-7.2-2.5-14.2-4.5-21.2l-29.1,16.2c-0.7-0.7-1.4-1.1-2.3-1.8c-0.9-0.5-1.8-0.9-2.5-1.1  c-0.9-0.2-1.8-0.5-2.7-0.7c-0.9,0-1.8,0-2.9,0c-0.9,0-1.8,0.2-2.7,0.5c-1.8,0.5-3.6,1.6-5,2.7c-0.7,0.7-1.4,1.4-2,2l-30.9-9.9  c-1.1,7.4-1.4,15.1-0.9,22.7c0.9,7,2.7,13.7,5.4,20l27-15.3c0.7,0.9,1.6,1.6,2.5,2.3s1.8,1.1,2.9,1.6s2,0.7,3.2,0.9  c1.1,0.2,2.3,0.2,3.4,0s2.3-0.5,3.2-0.7c1.1-0.5,2-0.9,2.9-1.6c0.9-0.7,1.8-1.4,2.5-2.3c0.7-0.9,1.4-1.8,2-2.7l30.2,9.9  C586.2,310.7,586.2,303.4,585.7,296.2"></path>	<path class="st14" d="M561.2,451.6c59.5-3.6,115.5-6.8,141-8.3h0.5h0.5h1.4L715,401c0.9-3.8-0.5-7.7-3.6-10.1  c-0.9-0.7-2.3-1.4-3.4-1.6l-130.4-32.9c-1.1-0.2-2.5-0.5-3.8-0.2c-3.8,0.7-7,3.4-7.9,7.2l-22.5,89.2L561.2,451.6"></path>	<polyline class="st15" points="642.7,446.9 661.6,378.7 624,369.2 601.9,449.4 642.7,446.9  "></polyline>	<path class="st15" d="M378.1,462.7c0.9-0.2,1.8-0.2,2.7-0.5c30.9-1.8,106.7-6.3,180.2-10.6l4.7-0.2L549,376  c-0.2-1.1-0.7-2.3-1.4-3.4c-0.7-0.9-1.6-1.8-2.7-2.5c-1.1-0.7-2.3-1.1-3.4-1.4s-2.5-0.2-3.6,0l-163.3,36c-1.1,0.2-2.3,0.7-3.4,1.4  c-0.9,0.7-1.8,1.6-2.5,2.7s-1.1,2.3-1.4,3.4c-0.2,1.1-0.2,2.5,0,3.6L378.1,462.7L378.1,462.7z M693.8,366.1  c-2.7,3.8-14.6,4.3-29.1,2.9c8.8-7.2,20.3-14,25.9-9C693.8,362,694.5,364.9,693.8,366.1 M602.8,349.6c-1.6-1.4-1.6-3.8-0.5-5.4  c0.9-0.9,2-1.6,3.2-2c7.2-2,15.1,8.8,20,18.9C617.7,358.4,609.8,354.6,602.8,349.6 M701.5,357.9c-1.1-2-2.7-3.8-4.3-5.4  c-14.6-12.6-37.4,7-45,14.4c-0.7-1.1-1.6-2.3-2.7-2.9c-1.1-0.9-2.3-1.4-3.6-1.8s-2.7-0.5-4.1-0.2c-1.4,0.2-2.7,0.7-3.8,1.4  c-4.3-10.6-16.7-35.8-34.7-30.6c-2.3,0.7-4.3,1.8-6.3,3.2c-6.1,4.5-6.8,9.2-6.3,12.4c2.5,13.3,31.8,22.5,41.9,25.4  c0.2,1.1,0.5,2,0.9,3.2c0.9,2,2.5,3.6,4.5,4.7s4.1,1.6,6.3,1.4c1.1-0.2,2.3-0.5,3.2-0.9c2-0.9,3.6-2.5,4.7-4.3h0.5  c9.7,1.4,41.7,5.4,49.5-6.1C704,369,705.3,364.3,701.5,357.9"></path>	<polyline class="st12" points="498.8,360 499.2,359.7 498.8,360  "></polyline>	<polyline class="st16" points="503.3,455.2 486.6,379.8 427.4,393.1 442,458.8 503.3,455.2  "></polyline>	<path class="st16" d="M474.2,374.6c3.8-12.4,10.6-26.3,19.1-25.2c1.4,0.2,2.7,0.7,3.8,1.1c1.8,0.9,2.9,2,2.9,2.5  C500.4,357.5,489.1,366.5,474.2,374.6 M402.8,377.3c-0.7-0.7-0.9-1.6-0.9-2.7c0-0.9,0.2-1.8,0.9-2.7c0.9-1.1,1.8-2,2.9-2.9  c7.4-4.7,19.8,4.7,28.8,14.4C417.7,382.7,405.6,380.7,402.8,377.3 M503.1,339.7c-2.5-1.4-5-2-7.7-2.5  c-21.2-2.5-30.6,26.8-34.2,40.8c-2.3-1.1-4.7-1.4-7-0.9c-1.1,0.2-2.3,0.7-3.4,1.4c-0.9,0.7-1.8,1.6-2.7,2.5  c-9-10.8-30.9-33.6-48.9-21.8c-2.3,1.6-4.3,3.4-5.9,5.6c-5.4,7.2-4.5,12.6-2.7,16c7.2,14.4,45.3,14.6,56.8,14.2h2.7  c0.7,0.5,1.1,0.9,1.8,1.1s1.4,0.5,2,0.7c0.7,0.2,1.6,0.2,2.3,0.2s1.6,0,2.3-0.2s1.4-0.5,2-0.7s1.4-0.7,1.8-1.1  c0.7-0.5,1.1-0.9,1.6-1.4c0.5-0.5,0.9-1.1,1.4-1.8l2.7-1.1c10.4-4.7,44.4-21.8,44.6-38.1c0-3.8-1.6-9.2-9.7-13.3"></path>	<path class="st17" d="M718.4,802.5c-17.1-77.2-28.4-219.1-4.1-338.7c-0.2-2.9-1.6-5.9-3.6-8.1c-1.1-1.1-2.3-2-3.6-2.5  c-1.4-0.7-2.9-0.9-4.3-1.1c-56.8,3.4-265.5,15.8-321.1,18.9c-1.6,0-3.2,0.5-4.5,1.1c-1.4,0.7-2.7,1.6-3.6,2.7  c-1.1,1.1-1.8,2.5-2.5,3.8c-0.7,1.4-0.9,2.9-0.9,4.5c0,0.2,0,0.5,0,0.7c12.6,72.7,16.9,200.9-9,320c0,1.4,0.2,2.7,0.9,4.1  c0.5,1.4,1.4,2.5,2.3,3.6c1.8,2,4.3,3.6,7,4.1h337.1c1.4-0.2,2.7-0.7,4.1-1.4c1.4-0.7,2.5-1.6,3.4-2.7c1.8-2.3,2.9-5,2.9-7.9  C718.4,803.2,718.4,803,718.4,802.5"></path>	<path class="st12" d="M624.9,577.1c0,2.9-0.2,5.6-0.7,8.6c-0.2,2.7-0.9,5.6-1.4,8.3s-1.4,5.6-2.3,8.1s-1.8,5.4-2.9,7.9  s-2.5,5.2-3.8,7.7c-1.4,2.5-2.9,5-4.5,7.2c-1.6,2.3-3.4,4.5-5.2,6.8c-1.8,2.3-3.8,4.3-5.9,6.3s-4.3,3.8-6.3,5.6  c-2.3,1.8-4.5,3.4-7,5s-4.7,2.9-7.4,4.3c-2.5,1.4-5.2,2.5-7.7,3.6c-2.7,1.1-5.4,2-8.1,2.9c-2.7,0.9-5.4,1.6-8.3,2  c-2.7,0.5-5.6,0.9-8.6,1.1c-2.9,0.2-5.6,0.5-8.6,0.5c-2.9,0-5.6-0.2-8.6-0.5c-2.9-0.2-5.6-0.7-8.6-1.1s-5.6-1.1-8.3-2  s-5.4-1.8-8.1-2.9c-2.7-1.1-5.2-2.3-7.7-3.6c-2.5-1.4-5-2.7-7.4-4.3c-2.5-1.6-4.7-3.2-7-5c-2.3-1.8-4.3-3.6-6.3-5.6  c-2-2-4.1-4.1-5.9-6.3c-1.8-2.3-3.6-4.5-5.2-6.8s-3.2-4.7-4.5-7.2c-1.4-2.5-2.7-5-3.8-7.7c-1.1-2.7-2-5.2-2.9-7.9  c-0.9-2.7-1.6-5.4-2.3-8.1s-1.1-5.6-1.4-8.3c-0.5-2.7-0.5-5.6-0.7-8.6c0-1.6,0.2-3.2,0.9-4.7s1.6-2.7,2.7-4.1  c1.1-1.1,2.5-2,4.1-2.7c6.1-2.5,13.3,0.5,15.8,6.5l0,0c0.7,1.6,0.9,3.2,0.9,4.7l0,0c0,2,0,4.3,0.2,6.3c0.2,2,0.5,4.1,0.9,6.3  c0.5,2,0.9,4.1,1.6,6.1c0.7,2,1.4,4.1,2,5.9c0.7,2,1.8,3.8,2.7,5.6s2,3.6,3.2,5.4s2.5,3.4,3.8,5c1.4,1.6,2.7,3.2,4.3,4.7  s2.9,2.9,4.7,4.3c1.8,1.4,3.4,2.5,5,3.8c1.8,1.1,3.6,2.3,5.4,3.2c1.8,0.9,3.6,1.8,5.6,2.7c2,0.9,3.8,1.6,5.9,2  c2,0.7,4.1,1.1,6.1,1.6s4.1,0.7,6.3,0.9c2,0.2,4.3,0.2,6.3,0.2c2,0,4.3,0,6.3-0.2c2-0.2,4.1-0.5,6.3-0.9s4.1-0.9,6.1-1.6  c2-0.7,4.1-1.4,5.9-2c2-0.9,3.8-1.8,5.6-2.7c1.8-0.9,3.6-2,5.4-3.2c1.8-1.1,3.4-2.5,5-3.8c1.6-1.4,3.2-2.7,4.7-4.3s2.9-2.9,4.3-4.7  c1.4-1.8,2.5-3.4,3.8-5c1.4-1.6,2.3-3.6,3.2-5.4s1.8-3.8,2.7-5.6c0.9-2,1.6-3.8,2-5.9c0.7-2,1.1-4.1,1.6-6.1c0.5-2,0.7-4.1,0.9-6.3  c0.2-2.3,0.2-4.3,0.2-6.3l0,0c0-3.2,1.4-6.3,3.6-8.6c1.1-1.1,2.5-2,4.1-2.7c2.9-1.1,6.3-1.1,9.2,0c1.6,0.7,2.7,1.6,4.1,2.7  c1.1,1.1,2,2.5,2.7,4.1C624.7,573.9,624.9,575.5,624.9,577.1 M461,541.9c-1.6,0-3.2-0.2-4.7-0.9s-2.7-1.4-4.1-2.5  c-3.4-3.4-4.5-8.8-2.7-13.3c1.1-2.9,3.6-5.4,6.5-6.5c1.6-0.7,3.2-0.9,4.7-0.9s3.2,0.2,4.7,0.9s2.7,1.6,4.1,2.7  c1.1,1.1,2,2.5,2.7,4.1c2.5,6.3-0.5,13.3-6.8,16C464.1,541.7,462.5,541.9,461,541.9 M612.7,541.3c-1.6,0-3.4-0.2-4.7-0.9  c-1.6-0.7-2.9-1.4-4.1-2.5s-2-2.5-2.7-4.1c-2.7-6.1,0.2-13.3,6.3-16c1.6-0.7,3.6-1.1,5.4-0.9c1.6,0,3.2,0.5,4.5,1.1  s2.7,1.6,3.8,2.7s2,2.5,2.5,3.8c1.1,2.9,1.1,6.1,0,9C621.8,538.1,617.5,541,612.7,541.3"></path></g></svg>