<svg xmlns="http://www.w3.org/2000/svg" xmlns:xlink="http://www.w3.org/1999/xlink" id="Layer_1" x="0px" y="0px" viewBox="0 0 1080 1080" style="enable-background:new 0 0 1080 1080;" xml:space="preserve"><style type="text/css">	.st0{fill-rule:evenodd;clip-rule:evenodd;fill:#4D4C4B;}	.st1{fill-rule:evenodd;clip-rule:evenodd;fill:#5FB74E;}	.st2{fill-rule:evenodd;clip-rule:evenodd;fill:#89C45F;}	.st3{fill-rule:evenodd;clip-rule:evenodd;fill:#4A9E4B;}	.st4{fill-rule:evenodd;clip-rule:evenodd;fill:#FDF8B4;}	.st5{fill-rule:evenodd;clip-rule:evenodd;fill:#FCD066;}	.st6{fill-rule:evenodd;clip-rule:evenodd;fill:#EEEFEE;}	.st7{fill-rule:evenodd;clip-rule:evenodd;fill:#FEFEFE;}	.st8{fill-rule:evenodd;clip-rule:evenodd;fill:#EE4D2D;}	.st9{fill-rule:evenodd;clip-rule:evenodd;fill:url(#SVGID_1_);}	.st10{fill-rule:evenodd;clip-rule:evenodd;fill:url(#SVGID_2_);}	.st11{fill:#94BF3E;}	.st12{fill:#FFFFFF;}	.st13{fill:#2AAA5A;}	.st14{fill:#E2127F;}	.st15{fill:#F19123;}	.st16{fill:#DF2228;}	.st17{fill:#1E93D1;}	.st18{fill:url(#SVGID_3_);}	.st19{fill-rule:evenodd;clip-rule:evenodd;fill:url(#SVGID_4_);filter:url(#Adobe_OpacityMaskFilter);}	.st20{mask:url(#id0_2_);fill:url(#SVGID_5_);}	.st21{fill:url(#SVGID_6_);}	.st22{fill-rule:evenodd;clip-rule:evenodd;}	.st23{fill-rule:evenodd;clip-rule:evenodd;fill:#EC2B89;}	.st24{fill-rule:evenodd;clip-rule:evenodd;fill:#00EFE8;}	.st25{fill-rule:evenodd;clip-rule:evenodd;fill:#FFFFFF;}	.st26{fill-rule:evenodd;clip-rule:evenodd;fill:#FEFEFE;stroke:#000000;stroke-width:0.4563;stroke-miterlimit:2.6131;}</style><g>	<path class="st22" d="M477.7,359.8c0-83.6,120.2-81.8,120.2,0H477.7L477.7,359.8z M419.8,359.8c-97.9,0.3-91.1,26.8-101.6,112.1  c-7.7,62.8-14.2,127.6-23.4,190.3C265.9,860.9,339.1,831.8,540,831.8c43.1,0,172.8,7.7,204.7-9c63.6-33.4,46.1-101.2,38.3-158.2  c-8.6-63-14.2-127.8-23.4-190.3c-12.8-86.8-1.4-114.4-103.8-114.4C655.8,208.1,419.8,209.3,419.8,359.8L419.8,359.8z"></path>	<path class="st23" d="M671.4,552.8c-36.9,0-66.8-29.9-66.8-66.8h-50.1v193.8c0,22.5-18.3,40.8-40.8,40.8  c-22.5,0-40.8-18.3-40.8-40.8c0-22.5,18.3-40.8,40.8-40.8c4.2,0,9,0.6,12.8,1.8l0-51c-4.2-0.6-8.5-0.9-12.8-0.9  c-50.2,0-90.9,40.7-90.9,90.9c0,50.2,40.7,90.9,90.9,90.9c50.2,0,90.9-40.7,90.9-90.9l0-102.6c18.2,14.8,41.4,23.8,66.8,23.8  L671.4,552.8L671.4,552.8z"></path>	<path class="st24" d="M657.2,538.6c-36.9,0-66.8-29.9-66.8-66.8h-50.1v193.8c0,22.5-18.3,40.8-40.8,40.8  c-22.5,0-40.8-18.3-40.8-40.8c0-22.5,18.3-40.8,40.8-40.8c4.2,0,9,0.6,12.8,1.8l0-51c-4.2-0.6-8.5-0.9-12.8-0.9  c-50.2,0-90.9,40.7-90.9,90.9c0,50.2,40.7,90.9,90.9,90.9c50.2,0,90.9-40.7,90.9-90.9l0-102.6c18.2,14.8,41.4,23.8,66.8,23.8V538.6  L657.2,538.6z"></path>	<path class="st25" d="M657.2,551.3c-16.1-3.5-30.1-12.8-39.6-25.7c-12.8-9.5-22.2-23.4-25.7-39.6h-37.4v193.8  c0,22.5-18.3,40.8-40.8,40.8c-14.9,0-27.9-8-35.1-19.9c-11.9-7.1-19.9-20.2-19.9-35.1c0-22.5,18.3-40.8,40.8-40.8  c4.2,0,9,0.6,12.8,1.8l0-37.7c-49.6,0.7-89.5,41.1-89.5,90.9c0,21.5,7.5,41.2,19.9,56.8c15.6,12.5,35.3,19.9,56.8,19.9  c50.2,0,90.9-40.7,90.9-90.9l0-102.6c18.2,14.8,41.4,23.8,66.8,23.8V551.3L657.2,551.3z"></path>	<path class="st26" d="M451.2,384.9c12.5,0,22.7,10.2,22.7,22.7c0,12.5-10.2,22.7-22.7,22.7c-12.5,0-22.7-10.2-22.7-22.7  C428.5,395,438.6,384.9,451.2,384.9L451.2,384.9z"></path>	<path class="st26" d="M628.8,384.9c12.5,0,22.7,10.2,22.7,22.7c0,12.5-10.2,22.7-22.7,22.7c-12.5,0-22.7-10.2-22.7-22.7  C606.1,395,616.3,384.9,628.8,384.9L628.8,384.9z"></path></g></svg>