<svg xmlns="http://www.w3.org/2000/svg" xmlns:xlink="http://www.w3.org/1999/xlink" id="Layer_1" x="0px" y="0px" viewBox="0 0 1080 1080" style="enable-background:new 0 0 1080 1080;" xml:space="preserve"><style type="text/css">	.st0{fill-rule:evenodd;clip-rule:evenodd;fill:#4D4C4B;}	.st1{fill-rule:evenodd;clip-rule:evenodd;fill:#5FB74E;}	.st2{fill-rule:evenodd;clip-rule:evenodd;fill:#89C45F;}	.st3{fill-rule:evenodd;clip-rule:evenodd;fill:#4A9E4B;}	.st4{fill-rule:evenodd;clip-rule:evenodd;fill:#FDF8B4;}	.st5{fill-rule:evenodd;clip-rule:evenodd;fill:#FCD066;}	.st6{fill-rule:evenodd;clip-rule:evenodd;fill:#EEEFEE;}	.st7{fill-rule:evenodd;clip-rule:evenodd;fill:#FEFEFE;}	.st8{fill-rule:evenodd;clip-rule:evenodd;fill:#EE4D2D;}	.st9{fill-rule:evenodd;clip-rule:evenodd;fill:url(#SVGID_1_);}	.st10{fill-rule:evenodd;clip-rule:evenodd;fill:url(#SVGID_2_);}	.st11{fill:#94BF3E;}	.st12{fill:#FFFFFF;}	.st13{fill:#2AAA5A;}	.st14{fill:#E2127F;}	.st15{fill:#F19123;}	.st16{fill:#DF2228;}	.st17{fill:#1E93D1;}	.st18{fill:url(#SVGID_3_);}	.st19{fill-rule:evenodd;clip-rule:evenodd;fill:url(#SVGID_4_);filter:url(#Adobe_OpacityMaskFilter);}	.st20{mask:url(#id0_2_);fill:url(#SVGID_5_);}	.st21{fill:url(#SVGID_6_);}	.st22{fill-rule:evenodd;clip-rule:evenodd;}	.st23{fill-rule:evenodd;clip-rule:evenodd;fill:#EC2B89;}	.st24{fill-rule:evenodd;clip-rule:evenodd;fill:#00EFE8;}	.st25{fill-rule:evenodd;clip-rule:evenodd;fill:#FFFFFF;}	.st26{fill-rule:evenodd;clip-rule:evenodd;fill:#FEFEFE;stroke:#000000;stroke-width:0.4563;stroke-miterlimit:2.6131;}</style><g>			<radialGradient id="SVGID_1_" cx="-680.5252" cy="610.5582" r="73.8054" gradientTransform="matrix(2.3302 -1.3326 -1.3326 -2.3302 3199.7327 779.4478)" gradientUnits="userSpaceOnUse">		<stop offset="0" style="stop-color:#FFFFFF"></stop>		<stop offset="0.502" style="stop-color:#FF0000"></stop>		<stop offset="0.502" style="stop-color:#FF7F7F"></stop>		<stop offset="1" style="stop-color:#FF0000"></stop>	</radialGradient>	<path class="st9" d="M540,268.9c149.7,0,271.1,121.4,271.1,271.1c0,149.7-121.4,271.1-271.1,271.1S268.9,689.7,268.9,540  C268.9,390.3,390.3,268.9,540,268.9L540,268.9z"></path>			<linearGradient id="SVGID_2_" gradientUnits="userSpaceOnUse" x1="636.8678" y1="645.12" x2="293.3946" y2="174.2797" gradientTransform="matrix(1 0 0 -1 -4.731548e-02 1081.97)">		<stop offset="0" style="stop-color:#FFFFFF"></stop>		<stop offset="1" style="stop-color:#FF0000"></stop>	</linearGradient>	<path class="st10" d="M498.7,595.5c-46.4-10.1-74.4-52.8-66.5-101.6c6.9-42.6,44.1-70.8,86.3-71l15.4,1.8  c36.1,7.1,65.6,39.7,67.3,81.6C601.3,563.2,556.4,608.1,498.7,595.5L498.7,595.5z M402.3,431.3c-71.3,110.1,26,242.2,146.2,215.3  c9.1-2,17.7-4.8,26-8.5c4.1-1.8,8.1-3.7,12-5.9c7.5-4.5,12.6-7.9,21-14.7c3.9-3.2,5-6.3,10.6-6.8c3.9,1,9.3,19.3,30.4,17.7  c13-1,22.4-11.1,25.2-22.4l0-12.3c-2.1-22.8-4.1-45.1-8-67.7c-5-28.7-14.5-68.9-30.4-92.2c-25.7-37.6-54.6-53.6-97.7-62.1  C486.4,364.1,430.5,387.7,402.3,431.3L402.3,431.3z M679.1,429.5c7,25.7,14.2,55.1,17.6,83.4l6,54.3c0.8,16.9-0.4,25.1,5.5,39.4  c7.2,10.6,25.1,19,40.6,3.8c24.7-24.2-12.3-177.2-24-210.5c-8.3-23.5-23.1-65.1-37.6-76.6c-6.5-5.2-26.7-19.8-40.5-16.2  c-16.4,4.2-1.1,28,3,37.9C658.5,366.3,674.8,407.5,679.1,429.5L679.1,429.5L679.1,429.5z"></path></g></svg>