<svg xmlns="http://www.w3.org/2000/svg" xmlns:xlink="http://www.w3.org/1999/xlink" id="Layer_1" x="0px" y="0px" viewBox="0 0 1080 1080" style="enable-background:new 0 0 1080 1080;" xml:space="preserve"><style type="text/css">	.st0{fill-rule:evenodd;clip-rule:evenodd;fill:#4D4C4B;}	.st1{fill-rule:evenodd;clip-rule:evenodd;fill:#5FB74E;}	.st2{fill-rule:evenodd;clip-rule:evenodd;fill:#89C45F;}	.st3{fill-rule:evenodd;clip-rule:evenodd;fill:#4A9E4B;}	.st4{fill-rule:evenodd;clip-rule:evenodd;fill:#FDF8B4;}	.st5{fill-rule:evenodd;clip-rule:evenodd;fill:#FCD066;}	.st6{fill-rule:evenodd;clip-rule:evenodd;fill:#EEEFEE;}	.st7{fill-rule:evenodd;clip-rule:evenodd;fill:#FEFEFE;}	.st8{fill-rule:evenodd;clip-rule:evenodd;fill:#EE4D2D;}	.st9{fill-rule:evenodd;clip-rule:evenodd;fill:url(#SVGID_1_);}	.st10{fill-rule:evenodd;clip-rule:evenodd;fill:url(#SVGID_2_);}	.st11{fill:#94BF3E;}	.st12{fill:#FFFFFF;}	.st13{fill:#2AAA5A;}	.st14{fill:#E2127F;}	.st15{fill:#F19123;}	.st16{fill:#DF2228;}	.st17{fill:#1E93D1;}	.st18{fill:url(#SVGID_3_);}	.st19{fill-rule:evenodd;clip-rule:evenodd;fill:url(#SVGID_4_);filter:url(#Adobe_OpacityMaskFilter);}	.st20{mask:url(#id0_2_);fill:url(#SVGID_5_);}	.st21{fill:url(#SVGID_6_);}	.st22{fill-rule:evenodd;clip-rule:evenodd;}	.st23{fill-rule:evenodd;clip-rule:evenodd;fill:#EC2B89;}	.st24{fill-rule:evenodd;clip-rule:evenodd;fill:#00EFE8;}	.st25{fill-rule:evenodd;clip-rule:evenodd;fill:#FFFFFF;}	.st26{fill-rule:evenodd;clip-rule:evenodd;fill:#FEFEFE;stroke:#000000;stroke-width:0.4563;stroke-miterlimit:2.6131;}</style><g>			<linearGradient id="SVGID_1_" gradientUnits="userSpaceOnUse" x1="232.5851" y1="540.3503" x2="843.3053" y2="545.0798" gradientTransform="matrix(1 0 0 -1 0 1082.0649)">		<stop offset="0" style="stop-color:#FFB800"></stop>		<stop offset="0.3294" style="stop-color:#F28000"></stop>		<stop offset="0.5608" style="stop-color:#F73B72"></stop>		<stop offset="0.7804" style="stop-color:#FB1CBD"></stop>		<stop offset="0.9294" style="stop-color:#FD08ED"></stop>		<stop offset="1" style="stop-color:#FF00FF"></stop>	</linearGradient>	<path style="fill:url(#SVGID_1_);" d="M540.1,789.4c-4.4,0-8.7-1.1-12.5-3.2c-32.5-18.8-273.2-169.7-282.2-174.3  c-6.9-3.2-11.6-9.8-12.5-17.4V382.8c-0.2-7.9,3.7-15.3,10.3-19.7l1.7-1c23.3-14.4,101.2-62,113.5-68.9c2.8-1.7,6.1-2.6,9.3-2.6  c3.1,0,6.1,0.8,8.8,2.2c0,0,109.1,71.1,125.7,77.4c11.7,5.4,24.5,8.1,37.4,7.8c14.6,0.3,29-3.2,41.8-10.2  c16.3-8.6,120.5-74.7,121.6-74.7c2.6-1.6,5.6-2.4,8.7-2.4c3.3,0,6.5,0.9,9.3,2.6c14.2,7.8,110.8,67,114.9,69.6  c6.8,4.1,10.9,11.5,10.8,19.4v211.6c-0.8,7.6-5.5,14.2-12.4,17.4c-9.1,5-249,155.9-282.1,174.3  C548.8,788.1,544.5,789.3,540.1,789.4L540.1,789.4L540.1,789.4z"></path>	<defs>		<filter id="Adobe_OpacityMaskFilter" filterUnits="userSpaceOnUse" x="538.9" y="372.4" width="308.3" height="416.9">					</filter>	</defs>	<mask maskUnits="userSpaceOnUse" x="538.9" y="372.4" width="308.3" height="416.9" id="id0_2_">					<linearGradient id="SVGID_2_" gradientUnits="userSpaceOnUse" x1="404.8392" y1="341.5978" x2="1027.988" y2="686.6298" gradientTransform="matrix(1 0 0 -1 0 1082.0649)">			<stop offset="0" style="stop-color:#FFFFFF"></stop>			<stop offset="1" style="stop-color:#FFFFFF;stop-opacity:0"></stop>		</linearGradient>					<rect x="538.7" y="372.2" style="fill-rule:evenodd;clip-rule:evenodd;fill:url(#SVGID_2_);filter:url(#Adobe_OpacityMaskFilter);" width="308.7" height="417.4"></rect>	</mask>			<linearGradient id="SVGID_3_" gradientUnits="userSpaceOnUse" x1="405.1797" y1="340.9828" x2="1028.3286" y2="686.0147" gradientTransform="matrix(1 0 0 -1 0 1082.0649)">		<stop offset="0" style="stop-color:#ED0A3F"></stop>		<stop offset="1" style="stop-color:#ED0A3F"></stop>	</linearGradient>	<path style="mask:url(#id0_2_);fill:url(#SVGID_3_);" d="M538.9,789.4h1.2c4.4,0,8.7-1.1,12.4-3.2c32.5-18.8,273-169.7,282.1-174.3  c6.9-3.2,11.7-9.8,12.4-17.4V382.8c0-3.6-0.8-7.1-2.4-10.3L538.9,540.4V789.4L538.9,789.4z"></path>			<linearGradient id="SVGID_4_" gradientUnits="userSpaceOnUse" x1="510.9922" y1="547.7504" x2="173.0452" y2="423.3561" gradientTransform="matrix(1 0 0 -1 0 1082.0649)">		<stop offset="0" style="stop-color:#ED5B00"></stop>		<stop offset="8.627450e-02" style="stop-color:#F37D00"></stop>		<stop offset="0.149" style="stop-color:#EF6200"></stop>		<stop offset="0.502" style="stop-color:#FB8A00"></stop>		<stop offset="1" style="stop-color:#F9A000"></stop>	</linearGradient>	<path style="fill:url(#SVGID_4_);" d="M537.8,786.4h-1.2c-4.3,0-8.6-1.1-12.3-3.2c-32.2-18.6-270.1-167.9-279.1-172.4  c-6.9-3.2-11.6-9.7-12.3-17.2V384.1c0-3.5,0.8-7,2.3-10.2L537.8,540L537.8,786.4L537.8,786.4z"></path></g></svg>