<svg xmlns="http://www.w3.org/2000/svg" xmlns:xlink="http://www.w3.org/1999/xlink" id="Layer_1" x="0px" y="0px" viewBox="0 0 1080 1080" style="enable-background:new 0 0 1080 1080;" xml:space="preserve"><style type="text/css">	.st0{fill-rule:evenodd;clip-rule:evenodd;fill:#4D4C4B;}	.st1{fill-rule:evenodd;clip-rule:evenodd;fill:#5FB74E;}	.st2{fill-rule:evenodd;clip-rule:evenodd;fill:#89C45F;}	.st3{fill-rule:evenodd;clip-rule:evenodd;fill:#4A9E4B;}	.st4{fill-rule:evenodd;clip-rule:evenodd;fill:#FDF8B4;}	.st5{fill-rule:evenodd;clip-rule:evenodd;fill:#FCD066;}	.st6{fill-rule:evenodd;clip-rule:evenodd;fill:#EEEFEE;}	.st7{fill-rule:evenodd;clip-rule:evenodd;fill:#FEFEFE;}	.st8{fill-rule:evenodd;clip-rule:evenodd;fill:#EE4D2D;}	.st9{fill-rule:evenodd;clip-rule:evenodd;fill:url(#SVGID_1_);}	.st10{fill-rule:evenodd;clip-rule:evenodd;fill:url(#SVGID_2_);}	.st11{fill:#94BF3E;}	.st12{fill:#FFFFFF;}	.st13{fill:#2AAA5A;}	.st14{fill:#E2127F;}	.st15{fill:#F19123;}	.st16{fill:#DF2228;}	.st17{fill:#1E93D1;}	.st18{fill:url(#SVGID_3_);}	.st19{fill-rule:evenodd;clip-rule:evenodd;fill:url(#SVGID_4_);filter:url(#Adobe_OpacityMaskFilter);}	.st20{mask:url(#id0_2_);fill:url(#SVGID_5_);}	.st21{fill:url(#SVGID_6_);}	.st22{fill-rule:evenodd;clip-rule:evenodd;}	.st23{fill-rule:evenodd;clip-rule:evenodd;fill:#EC2B89;}	.st24{fill-rule:evenodd;clip-rule:evenodd;fill:#00EFE8;}	.st25{fill-rule:evenodd;clip-rule:evenodd;fill:#FFFFFF;}	.st26{fill-rule:evenodd;clip-rule:evenodd;fill:#FEFEFE;stroke:#000000;stroke-width:0.4563;stroke-miterlimit:2.6131;}</style><g id="Layer_x0020_1">	<g id="_2140156135296">		<path class="st0" d="M540.1,415.6c21.7-10.9,48.1-16.8,72.2-18.9l27.1-2.4c29.7-2.6,59.4-1,89.2-1H745v16.3   c0,72.4,0,144.9,0,217.3v8.3c0,74.8-61.2,135.9-136,135.9H335V393.4h16.3c29.8,0,59.4-1.9,89.2,0.3l27.1,2.1   C493.4,397.7,517,404,540.1,415.6L540.1,415.6z"></path>		<path class="st1" d="M351.3,409.7v186.1V627v8.3v119.6h119.6h18.8H609c65.8,0,119.6-53.8,119.6-119.6V627c0-72,0-142.3,0-217.3   c-28.6,0-58.8-0.7-87.8,0.9l-27.1,2.3c-26.5,3.2-53.4,9.4-73.7,21.2c-22-12.7-45.9-19-73.6-22.1l-27.1-2.1   C409.7,408.6,379.4,409.7,351.3,409.7z"></path>		<path class="st2" d="M385.2,754.9h85.8h18.8H609c29.2,0,55.9-10.6,76.7-28c-24.3-56.4-80.4-95.9-145.8-95.9   C464.3,630.9,401,684,385.2,754.9L385.2,754.9z"></path>		<path class="st3" d="M540,754.9l70.4-1.1c28.8,0,54.9-10.1,75.3-27c26.3-21.7,42.9-54.5,42.9-91.6V627c0-72,0-142.3,0-217.3   c-28.6,0-58.8-0.7-87.8,0.9l-27.1,2.3c-26.5,3.2-53.4,9.4-73.7,21.2L540,754.9L540,754.9z"></path>		<path class="st1" d="M540,754.9h69.5c29.2,0,55.5-10.6,76.3-28c-24-55.8-81.4-95.1-145.8-95.9L540,754.9L540,754.9z"></path>		<path class="st0" d="M640.9,399.4c-5.2-50.9-48.2-90.6-100.4-90.6c-52.3,0-95.3,39.3-101.2,89.9l27.1,2.1   c4.8-36.6,36-64.8,73.9-64.8s69.4,28.7,73.4,65.7L640.9,399.4L640.9,399.4z"></path>		<path class="st0" d="M584.1,646.8c-11.8,12.5-23.6,25-35.4,37.5l-8.7,9.2l-8.7-9.2c-11.8-12.5-23.6-25-35.4-37.5l-6.1-6.5l4.5-7.7   c9.5-16.3,27.2-25.1,45.8-25.1c18.6,0,36.3,8.8,45.8,25.1l4.5,7.7L584.1,646.8L584.1,646.8z"></path>		<path class="st4" d="M575.4,638.7c-11.8,12.5-23.6,25-35.4,37.5c-11.8-12.5-23.6-25-35.4-37.5c7.5-12.9,21.5-19.2,35.4-19.2   C554,619.4,568,625.8,575.4,638.7z"></path>		<path class="st5" d="M575.4,638.7c-11.8,12.5-23.6,25-35.4,37.5v-56.7C554,619.4,568,625.8,575.4,638.7z"></path>		<path class="st0" d="M451.5,456.8c52.9,0,95.9,42.9,95.9,95.9s-42.9,95.9-95.9,95.9s-95.8-42.9-95.8-95.9S398.5,456.8,451.5,456.8   z"></path>		<path class="st6" d="M451.5,473.1c43.9,0,79.5,35.6,79.5,79.5s-35.6,79.5-79.5,79.5c-43.9,0-79.5-35.6-79.5-79.5   S407.5,473.1,451.5,473.1z"></path>		<path class="st7" d="M451.5,473.1c36.3,0,66.8,24.3,76.4,57.4c-9.6,33.2-40.2,57.4-76.4,57.4s-66.8-24.3-76.4-57.4   C384.6,497.3,415.2,473.1,451.5,473.1z"></path>		<path class="st0" d="M628.5,456.8c52.9,0,95.9,42.9,95.9,95.9s-42.9,95.9-95.9,95.9c-52.9,0-95.9-42.9-95.9-95.9   C532.7,499.7,575.6,456.8,628.5,456.8z"></path>		<path class="st6" d="M628.5,473.1c43.9,0,79.5,35.6,79.5,79.5s-35.6,79.5-79.5,79.5c-43.9,0-79.5-35.6-79.5-79.5   S584.6,473.1,628.5,473.1z"></path>		<path class="st7" d="M628.5,473.1c36.3,0,66.9,24.3,76.4,57.4c-9.6,33.2-40.2,57.4-76.4,57.4c-36.3,0-66.8-24.3-76.4-57.4   C561.7,497.3,592.3,473.1,628.5,473.1z"></path>		<path class="st0" d="M461.5,503.1c28.4,0,51.4,23,51.4,51.3c0,28.4-23,51.4-51.4,51.4c-28.4,0-51.4-23-51.4-51.4   c0-9.5,2.6-18.3,7-25.9c3.7,9.1,12.6,15.4,23,15.4c13.6,0,24.7-11.1,24.7-24.7c0-6.2-2.2-11.7-5.9-16.1   C459.7,503.1,460.6,503.1,461.5,503.1L461.5,503.1z"></path>		<path class="st0" d="M618.5,503.1c28.4,0,51.4,23,51.4,51.3c0,28.4-23,51.4-51.4,51.4c-28.4,0-51.4-23-51.4-51.4   c0-9.5,2.6-18.3,7-25.9c3.7,9.1,12.6,15.4,23,15.4c13.7,0,24.7-11.1,24.7-24.7c0-6.2-2.2-11.7-5.9-16.1   C616.8,503.1,617.6,503.1,618.5,503.1L618.5,503.1z"></path>	</g></g></svg>